<svg viewBox="0 0 100 60" xmlns="http://www.w3.org/2000/svg" fill="none" stroke="#25212c" stroke-width="0.15" stroke-opacity="0.4">
  <path d="M 100,59.5 L 100,58.5 L 100,57.5 L 100,56.5 L 100,55.5 L 100,54.5 L 100,53.5 L 100,52.5 L 100,51.5 L 100,50.5 L 100,49.5 L 100,48.5 L 100,47.5 L 100,46.5 L 100,45.5 L 100,44.5 L 100,43.5 L 100,42.5 L 100,41.5 L 100,40.5 L 100,39.5 L 100,38.5 L 100,37.5 L 100,36.5 L 100,35.5 L 100,34.5 L 100,33.5 L 100,32.5 L 100,31.5 L 100,30.5 L 100,29.5 L 100,28.5 L 100,27.5 L 100,26.5 L 100,25.5 L 100,24.5 L 100,23.5 L 100,22.5 L 100,21.5 L 100,20.5 L 100,19.5 L 100,18.5 L 100,17.5 L 100,16.5 L 100,15.5 L 100,14.5 L 100,13.5 L 100,12.5 L 100,11.5 L 100,10.5 L 100,9.5 L 100,8.5 L 100,7.5 L 100,6.5 L 100,5.5 L 100,4.5 L 100,3.5 L 100,2.5 L 100,1.5 L 100,0.5 L 99.5,0 L 98.5,0 L 97.5,0 L 96.5,0 L 95.5,0 L 94.5,0 L 93.5,0 L 92.5,0 L 91.5,0 L 90.5,0 L 89.5,0 L 88.5,0 L 87.5,0 L 86.5,0 L 85.5,0 L 84.5,0 L 83.5,0 L 82.5,0 L 81.5,0 L 80.5,0 L 79.5,0 L 78.5,0 L 77.5,0 L 76.5,0 L 75.5,0 L 74.5,0 L 73.5,0 L 72.5,0 L 71.5,0 L 70.5,0 L 69.5,0 L 68.5,0 L 67.5,0 L 66.5,0 L 65.5,0 L 64.5,0 L 63.5,0 L 62.5,0 L 61.5,0 L 60.5,0 L 59.5,0 L 58.5,0 L 57.5,0 L 56.5,0 L 55.5,0 L 54.5,0 L 53.5,0 L 52.5,0 L 51.5,0 L 50.5,0 L 49.5,0 L 48.5,0 L 47.5,0 L 46.5,0 L 45.5,0 L 44.5,0 L 43.5,0 L 42.5,0 L 41.5,0 L 40.5,0 L 39.5,0 L 38.5,0 L 37.5,0 L 36.5,0 L 35.5,0 L 34.5,0 L 33.5,0 L 32.5,0 L 31.5,0 L 30.5,0 L 29.5,0 L 28.5,0 L 27.5,0 L 26.5,0 L 25.5,0 L 24.5,0 L 23.5,0 L 22.5,0 L 21.5,0 L 20.5,0 L 19.5,0 L 18.5,0 L 17.5,0 L 16.5,0 L 15.5,0 L 14.5,0 L 13.5,0 L 12.5,0 L 11.5,0 L 10.5,0 L 9.5,0 L 8.5,0 L 7.5,0 L 6.5,0 L 5.5,0 L 4.5,0 L 3.5,0 L 2.5,0 L 1.5,0 L 0.5,0 L 0,0.5 L 0,1.5 L 0,2.5 L 0,3.5 L 0,4.5 L 0,5.5 L 0,6.5 L 0,7.5 L 0,8.5 L 0,9.5 L 0,10.5 L 0,11.5 L 0,12.5 L 0,13.5 L 0,14.5 L 0,15.5 L 0,16.5 L 0,17.5 L 0,18.5 L 0,19.5 L 0,20.5 L 0,21.5 L 0,22.5 L 0,23.5 L 0,24.5 L 0,25.5 L 0,26.5 L 0,27.5 L 0,28.5 L 0,29.5 L 0,30.5 L 0,31.5 L 0,32.5 L 0,33.5 L 0,34.5 L 0,35.5 L 0,36.5 L 0,37.5 L 0,38.5 L 0,39.5 L 0,40.5 L 0,41.5 L 0,42.5 L 0,43.5 L 0,44.5 L 0,45.5 L 0,46.5 L 0,47.5 L 0,48.5 L 0,49.5 L 0,50.5 L 0,51.5 L 0,52.5 L 0,53.5 L 0,54.5 L 0,55.5 L 0,56.5 L 0,57.5 L 0,58.5 L 0,59.5 L 0.5,60 L 1.5,60 L 2.5,60 L 3.5,60 L 4.5,60 L 5.5,60 L 6.5,60 L 7.5,60 L 8.5,60 L 9.5,60 L 10.5,60 L 11.5,60 L 12.5,60 L 13.5,60 L 14.5,60 L 15.5,60 L 16.5,60 L 17.5,60 L 18.5,60 L 19.5,60 L 20.5,60 L 21.5,60 L 22.5,60 L 23.5,60 L 24.5,60 L 25.5,60 L 26.5,60 L 27.5,60 L 28.5,60 L 29.5,60 L 30.5,60 L 31.5,60 L 32.5,60 L 33.5,60 L 34.5,60 L 35.5,60 L 36.5,60 L 37.5,60 L 38.5,60 L 39.5,60 L 40.5,60 L 41.5,60 L 42.5,60 L 43.5,60 L 44.5,60 L 45.5,60 L 46.5,60 L 47.5,60 L 48.5,60 L 49.5,60 L 50.5,60 L 51.5,60 L 52.5,60 L 53.5,60 L 54.5,60 L 55.5,60 L 56.5,60 L 57.5,60 L 58.5,60 L 59.5,60 L 60.5,60 L 61.5,60 L 62.5,60 L 63.5,60 L 64.5,60 L 65.5,60 L 66.5,60 L 67.5,60 L 68.5,60 L 69.5,60 L 70.5,60 L 71.5,60 L 72.5,60 L 73.5,60 L 74.5,60 L 75.5,60 L 76.5,60 L 77.5,60 L 78.5,60 L 79.5,60 L 80.5,60 L 81.5,60 L 82.5,60 L 83.5,60 L 84.5,60 L 85.5,60 L 86.5,60 L 87.5,60 L 88.5,60 L 89.5,60 L 90.5,60 L 91.5,60 L 92.5,60 L 93.5,60 L 94.5,60 L 95.5,60 L 96.5,60 L 97.5,60 L 98.5,60 L 99.5,60 L 100,59.5 Z" />
  <path d="M 57.5,4.5099800165774475 L 57.49257177720452,4.5 L 57.5,4.488616757346063 L 57.51623962273303,4.5 L 57.5,4.5099800165774475 Z" />
  <path d="M 5.5,38.65875071994205 L 5.3976911968529375,38.5 L 5.5,38.21985927135117 L 6.245184942746324,38.5 L 5.5,38.65875071994205 Z" />
  <path d="M 54.5,54.83182066249595 L 53.5,55.2643998724425 L 53.17358081032242,54.5 L 53.5,54.02411999562516 L 54.120517927801465,53.5 L 54.5,53.32826679235482 L 54.94706350618588,53.5 L 54.82331848669196,54.5 L 54.5,54.83182066249595 Z" />
  <path d="M 41.88077337020707,55.5 L 42.190788969708954,54.5 L 41.5,53.75816790452792 L 40.5,54.28127395171177 L 40.28224326766346,54.5 L 40.5,54.858439171857995 L 41.02563764166312,55.5 L 41.5,55.70627305676733 L 41.88077337020707,55.5 Z" />
  <path d="M 44.902674755324696,59.5 L 44.5,59.336039301894864 L 43.95950264224109,59.5 L 44.5,60 L 44.902674755324696,59.5 Z" />
  <path d="M 100,59.5 L 100,58.5 L 100,57.5 L 100,56.5 L 100,55.5 L 100,54.5 L 100,53.5 L 100,52.5 L 100,51.5 L 100,50.5 L 100,49.5 L 100,48.5 L 99.5,47.61357546042339 L 99.35332671978195,47.5 L 98.5,46.88549055313965 L 98.03135566727049,46.5 L 97.5,45.79907276830929 L 97.30834540935417,45.5 L 97.22895213600968,44.5 L 97.5,43.51564501598716 L 97.50710515076142,43.5 L 98.16901525779316,42.5 L 98.5,42.06451825142923 L 99.5,42.16177348780664 L 100,41.5 L 100,40.5 L 100,39.5 L 100,38.5 L 100,37.5 L 100,36.5 L 100,35.5 L 100,34.5 L 100,33.5 L 100,32.5 L 100,31.5 L 100,30.5 L 100,29.5 L 100,28.5 L 100,27.5 L 100,26.5 L 100,25.5 L 100,24.5 L 100,23.5 L 100,22.5 L 100,21.5 L 100,20.5 L 100,19.5 L 100,18.5 L 100,17.5 L 100,16.5 L 100,15.5 L 100,14.5 L 100,13.5 L 100,12.5 L 100,11.5 L 100,10.5 L 100,9.5 L 100,8.5 L 100,7.5 L 100,6.5 L 100,5.5 L 100,4.5 L 100,3.5 L 100,2.5 L 100,1.5 L 100,0.5 L 99.5,0 L 98.5,0 L 97.5,0 L 96.5,0 L 95.5,0 L 94.5,0 L 93.5,0 L 92.5,0 L 92.26988681820795,0.5 L 92.2162974721901,1.5 L 91.5207079115183,2.5 L 91.5,2.5162302658607847 L 90.5,3.2183282364802426 L 89.83295367188163,3.5 L 89.5,3.6351074542630064 L 88.5,3.8677709956310666 L 87.5,4.167405413605295 L 86.96476711605327,4.5 L 86.5,4.86581915723708 L 85.81422220811886,5.5 L 85.5,5.782805023165028 L 84.5,6.204388238880336 L 83.5,5.710734919426952 L 83.36004428521342,5.5 L 83.40951102850346,4.5 L 83.5,3.801322668480073 L 83.54457412516061,3.5 L 83.5,3.1209387778819577 L 83.41467881597296,2.5 L 82.5,1.6469194815396477 L 82.00904994326484,1.5 L 81.5,1.3903095642059338 L 80.5,1.3473257688891769 L 79.5,1.4528332110465354 L 79.35508863870885,1.5 L 78.5,1.9165248233077987 L 78.07821404937962,2.5 L 77.96434372960185,3.5 L 78.36462521583496,4.5 L 78.5,4.684131166392381 L 79.44289478407481,5.5 L 79.5,5.590412492129343 L 79.99617889279965,6.5 L 79.5,7.361907443278374 L 79.4149628698948,7.5 L 78.5,8.230822700357027 L 78.15620620141385,8.5 L 77.5,9.062542932494614 L 77.02050426159103,9.5 L 76.58480124472867,10.5 L 76.87293341736854,11.5 L 77.5,12.090876052505774 L 77.8954971982762,12.5 L 78.5,12.971557008250011 L 79.10466355208156,13.5 L 79.5,13.993824827838164 L 79.84473817448357,14.5 L 80.1895575878703,15.5 L 80.5,16.388111140375692 L 80.54980740649852,16.5 L 80.92236862961079,17.5 L 80.90884187256172,18.5 L 80.5,18.986554245426625 L 79.9479256556986,18.5 L 79.5,18.277501590649717 L 78.5,17.586465591816474 L 78.32779342146532,17.5 L 77.5,17.239776989535176 L 76.5,17.0388744483613 L 75.5,16.83509740591045 L 74.51532049903501,16.5 L 74.5,16.493404291519447 L 73.5,15.809381032465268 L 73.18007179750563,15.5 L 72.5,14.851928473692778 L 72.14520411293773,14.5 L 71.5,13.608841441208815 L 71.43018525560528,13.5 L 71.5,12.754704460309119 L 71.5319193095365,12.5 L 72.34106429537714,11.5 L 72.5,11.333573607663777 L 73.30990174728548,10.5 L 73.5,10.188676357764548 L 73.99381364194825,9.5 L 74.03556679460823,8.5 L 73.5,7.63705874025095 L 73.43718744527114,7.5 L 72.68563613200845,6.5 L 72.5,6.132104941061685 L 72.23450880251303,5.5 L 72.30619525080903,4.5 L 72.5,4.013366452677543 L 72.70508844333357,3.5 L 73.17845033080266,2.5 L 73.5,1.6649493962761848 L 73.58310762896063,1.5 L 73.64983074831868,0.5 L 73.5,0 L 72.5,0 L 71.5,0 L 70.5,0 L 69.5,0 L 68.5,0 L 67.5,0 L 66.5,0 L 65.5,0 L 64.5,0 L 63.5,0 L 62.5,0 L 61.5,0 L 60.5,0 L 59.5,0 L 58.959004171949665,0.5 L 59.45447605971214,1.5 L 59.5,1.5780445512387233 L 60.041215756259376,2.5 L 60.5,3.3134735891629137 L 60.59792911484662,3.5 L 60.94112858063841,4.5 L 61.07667471797294,5.5 L 61.042329929130254,6.5 L 60.79177235805069,7.5 L 60.5,8.034334653262276 L 59.80156707178847,8.5 L 59.5,8.644132769117828 L 58.5,8.65170414353046 L 58.050998117833664,8.5 L 57.5,8.33826269836471 L 56.5,7.911646903067005 L 55.670652209123396,7.5 L 55.5,7.40875192934677 L 54.5,6.870213137477858 L 54.09252807078797,6.5 L 53.5,6.140080003835852 L 52.83812587602923,5.5 L 52.5,5.179918846991604 L 52.07256051786982,4.5 L 51.74388549577491,3.5 L 51.737873437443305,2.5 L 51.96880463039881,1.5 L 52.342953900391606,0.5 L 51.5,0 L 50.5,0 L 49.5,0 L 48.5,0 L 47.5,0 L 46.5,0 L 45.5,0 L 45.48274093543273,0.5 L 44.974034331761445,1.5 L 44.5,1.9541406814578295 L 43.80982767307304,2.5 L 43.5,2.672885562548038 L 42.5,3.1646379537435907 L 41.804383285486736,3.5 L 41.5,3.6645872881171 L 40.5,4.420639274304899 L 40.42283945928242,4.5 L 39.75579984599511,5.5 L 39.5,6.113171927143225 L 39.22720716121246,6.5 L 38.5,7.4047030597610455 L 37.5,7.422408377086268 L 36.5,6.6716012190417455 L 36.38509894958907,6.5 L 35.87211499651284,5.5 L 35.5,4.540575721485888 L 35.48173981753417,4.5 L 35.077156088502846,3.5 L 34.6824951755169,2.5 L 34.5,1.6172825463979548 L 34.46965630681483,1.5 L 34.5,0.8331456275296554 L 34.5081774724579,0.5 L 34.5,0 L 33.5,0 L 32.5,0 L 31.5,0 L 30.5,0 L 30.172034672695037,0.5 L 30.5,0.7618351552990763 L 31.46415980968724,1.5 L 31.5,1.5594188471730344 L 32.18461952818806,2.5 L 32.01136219018487,3.5 L 31.5,4.20220646827381 L 31.303300926954613,4.5 L 30.5,5.244859572427018 L 30.164695701194237,5.5 L 29.5,5.884639047685688 L 28.5,6.478205206045737 L 28.466696851393735,6.5 L 27.5,6.993288765860866 L 26.5,7.426597169770465 L 26.057968298589966,7.5 L 25.5,7.591101874708965 L 24.886216873915597,7.5 L 24.5,7.281036087745905 L 24.16800651519621,6.5 L 24.49626936944256,5.5 L 24.5,5.493437180377119 L 24.97178717114237,4.5 L 25.400729727914797,3.5 L 25.5,2.6325630678035936 L 25.51249519213321,2.5 L 25.5,2.4044445305760083 L 25.24947550377989,1.5 L 25.098946902864448,0.5 L 24.5,0 L 23.926191990431253,0.5 L 23.5,0.8507356067912282 L 23.114431189374855,1.5 L 22.5,2.0415510829063215 L 22.04776936012634,2.5 L 21.5,2.9815460939011387 L 20.75819952846719,3.5 L 20.5,3.6927520915520615 L 19.5,4.03788117466493 L 18.5,4.033375364166889 L 17.5,3.8856893883097934 L 16.5,3.788649533467897 L 15.5,3.7786772105905095 L 14.5,3.762162852248162 L 13.5,3.6935542327300688 L 12.5,3.527241694543828 L 12.41031249519784,3.5 L 11.5,3.086027703919335 L 10.589985543481411,2.5 L 10.5,2.416796483092649 L 9.5,1.72180415501867 L 9.049358363272521,1.5 L 8.5,1.005230667767947 L 7.906310553707167,0.5 L 7.5,0 L 6.5,0 L 5.5,0 L 4.5,0 L 3.5,0 L 2.5,0 L 1.5,0 L 0.5,0 L 0,0.5 L 0,1.5 L 0,2.5 L 0,3.5 L 0,4.5 L 0,5.5 L 0,6.5 L 0,7.5 L 0,8.5 L 0,9.5 L 0,10.5 L 0,11.5 L 0,12.5 L 0,13.5 L 0,14.5 L 0,15.5 L 0,16.5 L 0,17.5 L 0,18.5 L 0.5,18.59683986941495 L 0.5672197065522095,18.5 L 1.2853446926132155,17.5 L 1.5,16.821040935023138 L 1.6169552101219513,16.5 L 2.003609880954494,15.5 L 2.5,14.905016637191093 L 3.5,14.783184607149005 L 4.5,15.141604634579908 L 5.219581708747024,15.5 L 5.5,15.888895854113699 L 6.5,16.399546253115574 L 7.5,15.936230255390004 L 7.65906893614166,15.5 L 7.7067544738641605,14.5 L 7.553120316477482,13.5 L 7.5,13.312737819599342 L 7.301878934308071,12.5 L 7.0074037245959016,11.5 L 6.708135533304883,10.5 L 6.689781323477304,9.5 L 7.5,9.199470202679262 L 8.5,9.047873293928417 L 9.5,9.021356656074493 L 10.5,9.482127094778836 L 10.512529381481889,9.5 L 10.900074547774484,10.5 L 11.033264874330674,11.5 L 11.03770372828074,12.5 L 10.92509086501897,13.5 L 10.65308091726823,14.5 L 10.5,14.833427489184583 L 9.878259525478251,15.5 L 9.5,15.918249075695467 L 8.59323858097319,16.5 L 8.5,16.607007122054917 L 7.5,17.146421627532632 L 6.5,16.86285446347014 L 5.999420579444272,17.5 L 5.5,17.689980031362136 L 5.059719105921203,18.5 L 4.749202081724989,19.5 L 4.5,20.356779781911754 L 4.457071967737442,20.5 L 3.527030656690637,21.5 L 3.5,21.516427189406105 L 2.7824742587913103,21.5 L 2.5,21.49231966121988 L 1.5,21.02618126188221 L 0.5,20.623664888517872 L 0,21.5 L 0,22.5 L 0,23.5 L 0,24.5 L 0,25.5 L 0,26.5 L 0.5,27.250592271234062 L 1.5,26.936386421809136 L 2.5,27.007628334568395 L 3.281860027235266,27.5 L 3.5,27.74366817568134 L 4.188273911104037,28.5 L 4.5,28.688784587571597 L 5.5,29.176719150772957 L 6.4699790927683,29.5 L 6.5,29.51318106713288 L 7.5,29.801287847460546 L 8.5,30.19166524502862 L 8.75771392772904,30.5 L 8.976458926860309,31.5 L 8.978543245139253,32.5 L 9.476029474668135,33.5 L 9.5,33.51416455055014 L 10.5,33.947862959923576 L 11.5,34.078234584823264 L 12.5,34.08649141346726 L 13.5,34.063078854854304 L 14.5,34.07363353770561 L 15.5,34.19805839312157 L 16.128108296214055,34.5 L 16.481130984870514,35.5 L 16.20330265391997,36.5 L 15.81348867622416,37.5 L 15.5,38.36227006943122 L 15.397618802877405,38.5 L 15.27589192664361,39.5 L 15.5,39.81080281258393 L 15.965384496874115,40.5 L 16.5,41.052525321738756 L 17.35862337030445,41.5 L 17.5,41.578627135506025 L 18.5,42.005006416372765 L 18.889569593374336,42.5 L 19.228164897604906,43.5 L 19.5,44.18217641553027 L 19.613541322106187,44.5 L 20.079933828945506,45.5 L 20.349789276815603,46.5 L 19.904200742688754,47.5 L 19.5,47.78878873612788 L 19.133879559662244,47.5 L 18.5,47.23255544279448 L 17.594760604433763,46.5 L 17.5,46.42605200751877 L 16.5,45.53738575608151 L 16.437641079073668,45.5 L 15.5,44.8986807580761 L 14.5,44.88832436388262 L 13.5,45.24233499178551 L 13.075670956662593,45.5 L 12.5,45.873754633013455 L 11.618409380870029,46.5 L 11.5,46.59603565582679 L 10.5,47.04763847128426 L 9.5,47.178701871414255 L 8.5,46.80302975077938 L 8.298256673473421,46.5 L 8.029745820418329,45.5 L 7.721227418461357,44.5 L 7.5,44.129491560860934 L 7.034463422274617,43.5 L 6.5,43.06291100139756 L 5.5,42.71435365294657 L 4.5,42.63547629910937 L 3.5,42.62060974016186 L 2.62285621395405,42.5 L 2.5,42.46995603393865 L 1.5510355916216803,41.5 L 1.57760838904683,40.5 L 1.8461018125624498,39.5 L 2.0377014406238967,38.5 L 2.090750124171342,37.5 L 2.103150684013229,36.5 L 2.1940925155668936,35.5 L 2.4955737400330538,34.5 L 2.5,34.489706637330855 L 3.063466719885038,33.5 L 3.2517932275872523,32.5 L 3.164634411460355,31.5 L 2.955162296436462,30.5 L 2.5,29.54894045389089 L 2.4646225447471233,29.5 L 1.5,28.715206743791207 L 1.0555197641270322,28.5 L 0.5,27.893227497432637 L 0,28.5 L 0,29.5 L 0,30.5 L 0,31.5 L 0,32.5 L 0,33.5 L 0,34.5 L 0,35.5 L 0,36.5 L 0,37.5 L 0,38.5 L 0,39.5 L 0,40.5 L 0,41.5 L 0,42.5 L 0,43.5 L 0,44.5 L 0,45.5 L 0,46.5 L 0,47.5 L 0,48.5 L 0,49.5 L 0,50.5 L 0,51.5 L 0,52.5 L 0,53.5 L 0,54.5 L 0.5,55.368051345061524 L 0.5995480132646456,55.5 L 0.9317331619242917,56.5 L 0.5484136324372912,57.5 L 0.5,57.54464309745636 L 0,58.5 L 0,59.5 L 0.5,60 L 1.5,60 L 2.5,60 L 3.5,60 L 4.5,60 L 5.5,60 L 6.5,60 L 7.5,60 L 8.5,60 L 9.5,60 L 10.5,60 L 11.5,60 L 12.5,60 L 13.5,60 L 14.5,60 L 15.5,60 L 16.5,60 L 17.5,60 L 18.5,60 L 19.5,60 L 20.5,60 L 21.5,60 L 22.5,60 L 23.5,60 L 24.5,60 L 25.5,60 L 26.5,60 L 27.5,60 L 28.5,60 L 29.5,60 L 30.5,60 L 31.5,60 L 32.5,60 L 33.5,60 L 34.5,60 L 35.5,60 L 36.5,60 L 37.5,60 L 38.5,60 L 39.40910420760497,59.5 L 39.5,58.824577750198735 L 39.563668136952096,58.5 L 39.539187507152725,57.5 L 39.5,57.347577730352924 L 39.287602883919995,56.5 L 38.87034323083399,55.5 L 38.5,54.62359871282256 L 38.47282138354457,54.5 L 38.134569612288324,53.5 L 37.5,52.70227075044999 L 37.40234335469676,52.5 L 36.55278902003671,51.5 L 36.5,51.45238142466595 L 35.50895173385256,50.5 L 35.5,50.49106207001995 L 34.5,49.81234232725339 L 33.5,49.666190913147204 L 32.5,49.78667161774606 L 31.5,49.902829727279915 L 30.5,49.911798634917375 L 29.5,49.79794661245427 L 28.67404144408985,49.5 L 28.5,49.248811123925215 L 28.249762371980815,48.5 L 28.489787475775085,47.5 L 28.5,47.47008094983646 L 28.809601351117667,46.5 L 28.97582571031701,45.5 L 29.04535784285517,44.5 L 29.327938156725573,43.5 L 29.5,43.24659644408478 L 30.5,42.68964138751036 L 31.5,43.06770126884494 L 31.924646282967807,43.5 L 32.5,44.18828125996702 L 32.73283124532023,44.5 L 33.45933040299614,45.5 L 33.5,45.557004986559726 L 34.5,46.43165633138135 L 34.73606077539221,46.5 L 35.5,46.755240794889716 L 36.5,46.898561193660214 L 37.5,47.27661052833041 L 37.82646555724492,47.5 L 38.5,47.9355875899723 L 39.5,48.4686860125217 L 39.73106649428036,48.5 L 40.5,48.607778459018505 L 40.78119992263488,48.5 L 41.5,48.17425136734412 L 42.5,47.628027791057136 L 43.297649413287154,47.5 L 43.5,47.47685961027701 L 43.739128198277925,47.5 L 44.5,47.558525108268 L 45.5,47.64692585660489 L 46.5,47.66489794514287 L 47.5,47.7753776471591 L 48.5,48.41349578140605 L 48.555494834382884,48.5 L 48.603852088792664,49.5 L 48.5,49.99590711034072 L 48.381328927517046,50.5 L 48.26968710752745,51.5 L 48.498688140881406,52.5 L 48.5,52.502753910060584 L 49.27831179007352,53.5 L 49.5,53.733314354250055 L 50.5,53.65049489496851 L 50.66061268797718,53.5 L 51.5,52.96983161474301 L 52.0526109470518,52.5 L 52.5,52.18242732487476 L 53.45812379243327,51.5 L 53.5,51.469586406919646 L 54.5,50.920120947114185 L 55.5,50.6512236011124 L 56.5,50.72371464333356 L 57.5,51.460626215898046 L 57.52866901918405,51.5 L 58.01899802278943,52.5 L 58.131137407753954,53.5 L 57.80300939887349,54.5 L 57.5,54.832618140097225 L 56.92702811230821,55.5 L 56.5,55.87621190310005 L 55.87838901764221,56.5 L 55.5,56.94024982791591 L 54.95723815640832,57.5 L 54.5,58.02570961400799 L 53.847317783483135,58.5 L 53.5,58.71045542685625 L 52.5,59.11487101573241 L 51.60566996308082,59.5 L 52.5,60 L 53.5,60 L 54.5,60 L 55.5,60 L 56.5,60 L 57.5,60 L 58.5,60 L 59.5,60 L 60.5,60 L 61.5,60 L 62.5,60 L 63.5,60 L 64.5,60 L 65.5,60 L 66.5,60 L 67.5,60 L 68.5,60 L 69.5,60 L 70.5,60 L 71.5,60 L 72.5,60 L 73.5,60 L 74.5,60 L 75.5,60 L 76.5,60 L 77.5,60 L 78.5,60 L 79.5,60 L 80.5,60 L 81.5,60 L 82.5,60 L 83.5,60 L 84.5,60 L 85.5,60 L 86.5,60 L 87.5,60 L 88.5,60 L 89.5,60 L 90.5,60 L 91.5,60 L 92.5,60 L 93.5,60 L 94.5,60 L 95.5,60 L 96.5,60 L 97.5,60 L 98.5,60 L 99.5,60 L 100,59.5 Z" />
  <path d="M 95.5,24.735506654909745 L 94.5,24.726366096943458 L 93.95855224748132,24.5 L 93.55021878524967,23.5 L 93.83169315687917,22.5 L 94.09945859326422,21.5 L 94.04363774856353,20.5 L 93.62047260932265,19.5 L 93.5,19.314487362442296 L 92.5,18.61438034813655 L 91.5,18.78243493462391 L 91.0557815998226,19.5 L 90.5,20.482278799740165 L 90.49172248298876,20.5 L 89.66774718172663,21.5 L 89.5,21.620179730017025 L 88.5,21.825478967522617 L 87.83774382961508,21.5 L 87.5,21.319794640923927 L 86.80611564866636,20.5 L 86.5,20.014133404523058 L 86.19121727527677,19.5 L 86.04079281708552,18.5 L 86.5,17.646412611186935 L 86.64557814179857,17.5 L 87.5,16.908004713929223 L 88.5,16.606898647431574 L 88.7355572282886,16.5 L 89.48890830795773,15.5 L 89.5,15.483933554201863 L 89.94727283086564,14.5 L 90.5,14.012907129272563 L 91.5,13.564869414681118 L 92.5,13.684763833169164 L 93.5,14.04871943402894 L 94.34303121404037,14.5 L 94.5,14.684295753287975 L 94.9751232242354,15.5 L 95.2108313721867,16.5 L 95.5,17.213883677182118 L 95.61659330732905,17.5 L 96.5,18.49773881802157 L 96.5020229721835,18.5 L 97.40532259547032,19.5 L 97.5,19.675473636323453 L 97.83362281711929,20.5 L 97.84103598035358,21.5 L 97.66592848707224,22.5 L 97.5,23.10231835329834 L 97.3293050376917,23.5 L 96.5,24.42929236748048 L 96.36180826201772,24.5 L 95.5,24.735506654909745 Z" />
  <path d="M 21.5,29.903377954570942 L 20.5,30.101378573155667 L 19.5,29.82126713357748 L 19.25753496374732,29.5 L 19.14215399475344,28.5 L 19.064957949530402,27.5 L 18.56354320540716,26.5 L 18.5,26.434809176622178 L 17.5,25.5088303844858 L 17.49077185947928,25.5 L 16.5,24.60181695273914 L 16.406826047208256,24.5 L 15.893717284743484,23.5 L 16.130530305446527,22.5 L 16.5,22.175637783932597 L 17.5,21.76842392131136 L 18.5,21.503241305846714 L 18.513154452873547,21.5 L 19.5,21.206879810512525 L 20.5,21.11497512917218 L 21.067601099499214,21.5 L 21.5,21.77726732597283 L 21.945020389004704,22.5 L 22.5,23.343287391624973 L 22.577769100856788,23.5 L 23.03412004629256,24.5 L 23.324712965144254,25.5 L 23.368502681139848,26.5 L 23.21205688936949,27.5 L 22.9055722052147,28.5 L 22.5,29.220438622635598 L 22.23238301498061,29.5 L 21.5,29.903377954570942 Z" />
  <path d="M 55.5,31.970933369185374 L 54.5,32.36218762407803 L 53.5,32.395372032022024 L 52.5,31.799820455891393 L 52.276382050356666,31.5 L 51.671699824796654,30.5 L 51.5,30.170089176124087 L 51.18403709706955,29.5 L 50.70224050544987,28.5 L 50.5,28.100563505997144 L 50.176993044714685,27.5 L 49.738498123747746,26.5 L 49.5,25.78416414926379 L 49.40675655129155,25.5 L 49.18482517931801,24.5 L 49.01765953142088,23.5 L 48.99287065388792,22.5 L 49.5,21.816040058964536 L 50.5,21.648062156025194 L 51.5,22.199332171113703 L 51.74445291267432,22.5 L 52.5,23.32105781749108 L 52.63803938334359,23.5 L 53.5,24.416796625913946 L 53.60450391129633,24.5 L 54.5,25.08823786810289 L 55.5,25.315787238666505 L 56.5,25.33574986054876 L 57.5,25.386298487464607 L 58.018057645808284,25.5 L 58.5,25.664657910774217 L 59.5,26.2063691936185 L 60.01589600626055,26.5 L 60.5,27.29517659074803 L 60.67930744593729,27.5 L 60.5,28.139503865286617 L 60.377423905116885,28.5 L 59.5,29.07854501780178 L 58.79486978561757,29.5 L 58.5,29.66664204248032 L 57.5,30.352410270030266 L 57.32805255287005,30.5 L 56.5,31.254037622040386 L 56.25450107627789,31.5 L 55.5,31.970933369185374 Z" />
  <path d="M 33.5,34.544752602580196 L 32.5,34.55798866597973 L 32.43356319314723,34.5 L 32.16418129766103,33.5 L 32.5,32.52199390963174 L 32.50958338546354,32.5 L 33.07297796523859,31.5 L 33.5,30.699143745384568 L 33.69790111023842,30.5 L 34.5,29.894267438254634 L 35.5,29.54243103559257 L 35.578429843648586,29.5 L 36.5,29.07704301746093 L 37.04142205480668,28.5 L 37.5,27.975684751658154 L 37.881515064435185,27.5 L 38.5,26.721813879212053 L 38.783705804438824,26.5 L 39.5,25.91835227297146 L 40.039516722945145,25.5 L 40.5,25.100814585192083 L 40.9134051321705,24.5 L 41.36396255055938,23.5 L 41.5,22.71586513515586 L 41.54281265919111,22.5 L 41.5,22.235232217004008 L 41.42123306708006,21.5 L 41.015009308171074,20.5 L 40.5,19.688677282058393 L 40.40660445700307,19.5 L 39.943295229777235,18.5 L 39.65605192909076,17.5 L 39.92082073647124,16.5 L 40.5,16.076076915494617 L 41.5,15.787734717443335 L 42.5,15.539042191253621 L 42.591764495341586,15.5 L 43.5,15.081990722022729 L 44.45753167512931,14.5 L 44.5,14.471675371927509 L 45.5,13.950710971502716 L 46.35708592273915,13.5 L 46.5,13.382442488119194 L 47.36926623077375,12.5 L 47.5,12.338323419736303 L 48.33352583680179,11.5 L 48.5,11.385985917976416 L 49.5,11.015063816288514 L 50.5,10.753815632190813 L 51.11351853536168,10.5 L 51.5,10.3464831482256 L 52.5,9.81310028428769 L 53.5,9.546585976864922 L 54.5,9.710747333059885 L 55.5,10.408415764567755 L 55.5861823210643,10.5 L 56.463915796629195,11.5 L 56.5,11.644068638184732 L 56.67739711541015,12.5 L 56.5,12.834568542225057 L 56.09275951680228,13.5 L 55.5,13.920261280118996 L 54.53348395309864,14.5 L 54.5,14.516834978637533 L 53.5,14.971995019207657 L 52.5,15.383936125839606 L 51.86607641649799,15.5 L 51.5,15.579706652088852 L 50.5,15.524654141180491 L 49.936680518058346,15.5 L 49.5,15.474050148492434 L 49.424426822848915,15.5 L 48.5,16.006514229782233 L 48.25344724260993,16.5 L 47.95985295124402,17.5 L 47.78136655179105,18.5 L 47.6585949737188,19.5 L 47.5,20.380429557259724 L 47.472481859275064,20.5 L 46.93563305999242,21.5 L 46.5,21.869464755854754 L 45.94686403680273,22.5 L 45.5,23.122022029731056 L 45.2904325989075,23.5 L 44.79225215568109,24.5 L 44.5,24.992330683766603 L 44.088061420148776,25.5 L 43.5,26.058996274187468 L 42.71820812693576,26.5 L 42.5,26.60923463228067 L 41.5,27.227520516603718 L 41.273713864241834,27.5 L 40.65630292005011,28.5 L 40.5,28.928447633403902 L 40.26882456111686,29.5 L 40.0620262082151,30.5 L 40.07131322526706,31.5 L 40.5,32.47929980001733 L 40.50595661013497,32.5 L 40.76606465320174,33.5 L 40.5,34.15974980002005 L 39.930637860337185,33.5 L 39.5,33.14842557212933 L 38.7872689201321,32.5 L 38.5,32.332519406080934 L 37.5,31.959397805674364 L 36.5,32.08363716321975 L 35.94760296265016,32.5 L 35.5,32.782796499126434 L 34.767716685920924,33.5 L 34.5,33.75631673455326 L 33.563663531019934,34.5 L 33.5,34.544752602580196 Z" />
  <path d="M 82.5,39.74214004790143 L 81.5,40.046967980693466 L 80.5,39.74439807074832 L 80.24213937731267,39.5 L 79.5,38.720530368026246 L 79.365877792098,38.5 L 78.83869140630085,37.5 L 78.5,36.80213063057778 L 78.3507502653983,36.5 L 77.91618208443381,35.5 L 77.64479851101933,34.5 L 77.78957092623348,33.5 L 78.5,32.699822648005394 L 78.73774502029357,32.5 L 79.5,32.04901315668579 L 80.3058238598279,31.5 L 80.5,31.381271003628818 L 81.5,30.905631589934377 L 82.5,30.78386415510281 L 83.5,31.071900706585573 L 84.5,31.459316917452178 L 84.6771431900751,31.5 L 85.5,31.68028553404106 L 86.5,31.63823723961054 L 87.01368291853292,31.5 L 87.5,31.325906185715205 L 88.48985176749292,30.5 L 88.5,30.48320492316107 L 89.05495304565422,29.5 L 89.46901015153762,28.5 L 89.5,28.428969776867355 L 90.32162232110001,27.5 L 90.5,27.29796347782803 L 91.10205382059942,27.5 L 91.5,27.703253022407548 L 91.79474423092923,28.5 L 92.16599681607595,29.5 L 92.5,30.33618262678698 L 92.58310830182727,30.5 L 92.63673452639487,31.5 L 92.5,31.58837136015044 L 91.5,32.33567785061241 L 91.34793988166219,32.5 L 90.62890290039088,33.5 L 90.5,33.85655660316896 L 90.33936421439785,34.5 L 90.17245562471294,35.5 L 89.96360640129728,36.5 L 89.5,37.402668622719844 L 89.16263539638597,37.5 L 88.5,37.66817351868469 L 87.5,37.552944165170814 L 86.5,37.59555825632486 L 85.5,37.83569510775803 L 84.5,38.255896338639495 L 84.16463182474445,38.5 L 83.5,38.9756418028268 L 82.8482871558126,39.5 L 82.5,39.74214004790143 Z" />
  <path d="M 61.5,41.926885122627404 L 60.5,42.19008350163238 L 59.5,42.1504016419973 L 58.5,41.82276141183657 L 57.735813120044234,41.5 L 57.5,41.37521368891076 L 56.5,40.761661056271755 L 56.29598954840643,40.5 L 56.076011636775576,39.5 L 56.21754616618347,38.5 L 56.5,37.835655089072624 L 56.64494236997129,37.5 L 57.27430838714523,36.5 L 57.5,36.130336847097404 L 58.02437954111834,35.5 L 58.5,34.77288829356134 L 58.81970827457079,34.5 L 59.5,33.81390127448404 L 59.87131332563231,33.5 L 60.5,32.87015835254743 L 60.73951974339552,32.5 L 61.36367961048394,31.5 L 61.5,31.247456942332793 L 61.89385065457892,30.5 L 62.380952515538574,29.5 L 62.5,29.32320790621749 L 63.16661273019303,28.5 L 63.5,28.35998232662939 L 64.5,27.974955249460823 L 65.5,27.755216504455017 L 66.5,27.672157229050367 L 67.5,27.70956067119464 L 68.5,27.838758975086805 L 69.5,27.993789879882325 L 70.5,28.18694110089143 L 71.5,28.44809566163934 L 71.65870769263653,28.5 L 72.5,28.895095534020623 L 73.32045618725624,29.5 L 73.48012433580783,30.5 L 72.893963718322,31.5 L 72.5,31.85013225789269 L 71.84405076962993,32.5 L 71.5,32.78599810883545 L 70.56403767963211,33.5 L 70.5,33.55578485077102 L 69.5,34.24795721389682 L 69.0438410238179,34.5 L 68.5,34.86536392034892 L 67.5,35.350275070706765 L 67.06097552521042,35.5 L 66.5,35.74170613011108 L 65.5,35.99478738309334 L 64.5,36.18786789938245 L 63.686576819409495,36.5 L 64.01720575362647,37.5 L 64.5,38.017592300567685 L 64.81242580998735,38.5 L 64.91868657004721,39.5 L 64.5,40.019829050182395 L 64.1310538210455,40.5 L 63.5,40.849993455528534 L 62.5,41.47984310591067 L 62.46387839853078,41.5 L 61.5,41.926885122627404 Z" />
  <path d="M 89.5,44.89502160840547 L 89.39322445630489,44.5 L 89.07662100154481,43.5 L 88.90453631420701,42.5 L 89.09192507487941,41.5 L 89.5,41.191594293359856 L 89.70674716055774,41.5 L 90.5,42.467914983366214 L 90.51480552968724,42.5 L 90.66178221005951,43.5 L 90.5,44.074600534780316 L 89.85159598184042,44.5 L 89.5,44.89502160840547 Z" />
  <path d="M 84.5,54.570232497093954 L 84.16579145227483,54.5 L 83.5,54.4020458705668 L 82.5,53.81644963170799 L 82.19030366181487,53.5 L 81.5,52.91463432502943 L 81.03124438802168,52.5 L 80.5,51.989348911889174 L 79.83278994376505,51.5 L 79.5,50.96902537605463 L 79.13109604757497,50.5 L 79.5,49.7997310195079 L 79.56827262461277,49.5 L 80.28486879983159,48.5 L 80.5,48.20706641800441 L 80.89282532632984,47.5 L 81.24889694222044,46.5 L 81.49195954270118,45.5 L 81.5,45.47430538452603 L 82.22246543237827,44.5 L 82.5,44.287498639028016 L 83.5,44.366096020518675 L 83.77514125897409,44.5 L 84.5,44.84861617398252 L 85.5,45.41600946365209 L 85.69749082245751,45.5 L 86.5,45.89930832160997 L 87.5,46.067116961008104 L 88.5,45.99805179910982 L 89.26765695039195,46.5 L 89.36821561409349,47.5 L 88.94051154596985,48.5 L 88.5,49.00208932730498 L 88.05930924331284,49.5 L 87.5,50.241872853058915 L 87.37022451033586,50.5 L 87.02266641145653,51.5 L 86.69267056905178,52.5 L 86.5,52.88656928382852 L 86.0862349661281,53.5 L 85.5,54.14152853044274 L 84.62067362826917,54.5 L 84.5,54.570232497093954 Z" />
  <path d="M 21.5,56.62173733265876 L 20.5,56.92015728310598 L 19.5,56.574873840213584 L 19.438854864256523,56.5 L 18.777499167563413,55.5 L 18.5,54.96437539487259 L 18.214954682328617,54.5 L 17.594296631217567,53.5 L 17.502105872277372,52.5 L 18.29080567585242,51.5 L 18.5,51.28526507228415 L 19.21288564722388,50.5 L 19.5,49.99939023267733 L 20.354558614886233,49.5 L 20.5,49.32936645755596 L 20.665325889985382,49.5 L 21.5,49.86734921232135 L 21.96788262649231,50.5 L 22.415419079152784,51.5 L 22.5,51.90382106990936 L 22.580975982591173,52.5 L 22.640876417822113,53.5 L 22.641865315792792,54.5 L 22.5,55.453608454590096 L 22.489401880348392,55.5 L 21.6738342153332,56.5 L 21.5,56.62173733265876 Z" />
  <path d="M 82.5,58.60007820192062 L 81.5,59.43550746893537 L 80.5,59.48009959547636 L 79.5,59.0583460528396 L 78.51639515073386,58.5 L 78.5,58.48703175251189 L 77.5,57.50948408108875 L 77.49133689308235,57.5 L 77.28964792414536,56.5 L 77.5,55.862420090109055 L 77.68241310896221,55.5 L 78.5,54.864560758315626 L 79.5,54.8767310573474 L 80.5,55.19895259653463 L 81.12956418970076,55.5 L 81.5,55.68497613176737 L 82.5,56.45922803535867 L 82.53649156543047,56.5 L 82.93287560904274,57.5 L 82.58988534428204,58.5 L 82.5,58.60007820192062 Z" />
  <path d="M 64.03664470726343,1.5 L 64.5,0.8716786865705084 L 64.61967225100807,0.5 L 64.5,0 L 63.5,0 L 62.5,0 L 61.5,0 L 61.200513565582554,0.5 L 61.5,0.8589163619553903 L 62.41662906680637,1.5 L 62.5,1.5915161638965243 L 63.5,1.940105665189865 L 64.03664470726343,1.5 Z" />
  <path d="M 100,3.5 L 100,2.5 L 100,1.5 L 100,0.5 L 99.5,0 L 98.5,0 L 97.5,0 L 96.5,0 L 95.5,0 L 94.87051298309268,0.5 L 95.5,0.9872206732512439 L 96.33862005520905,1.5 L 96.5,1.6130926000951478 L 97.5,2.422675255454231 L 97.58627614842825,2.5 L 98.5,3.491250787063965 L 98.51518743709997,3.5 L 99.5,4.0211206910929524 L 100,3.5 Z" />
  <path d="M 65.27990423959879,7.5 L 64.5,6.90906801657966 L 64.12621400974508,7.5 L 64.5,8.068185641031874 L 65.27990423959879,7.5 Z" />
  <path d="M 1.6523646566155197,8.5 L 2.067258857614454,7.5 L 2.3350568665326707,6.5 L 2.5,5.925353145111031 L 2.643514585483093,5.5 L 3.119427826444349,4.5 L 3.5,3.61016877899406 L 3.569366533843927,3.5 L 3.5155431399320287,2.5 L 3.5,2.4849632412409655 L 2.5,1.7801927461192242 L 1.5,1.51467702169901 L 1.2962463243971212,1.5 L 0.5,1.4611324333098286 L 0,1.5 L 0,2.5 L 0,3.5 L 0,4.5 L 0,5.5 L 0,6.5 L 0,7.5 L 0,8.5 L 0.5,9.481089892866022 L 1.5,8.800528370094966 L 1.6523646566155197,8.5 Z" />
  <path d="M 45.242353504032636,9.5 L 45.5,9.446028972346777 L 46.5,8.831688034867385 L 47.05904135097289,8.5 L 47.5,8.252700308752457 L 48.5,7.9071686057206545 L 49.5,7.633835160590591 L 49.746220717800824,7.5 L 50.34047287251341,6.5 L 50.15657193139249,5.5 L 49.8872519023081,4.5 L 49.73549488616014,3.5 L 49.744730584902605,2.5 L 49.87992525570003,1.5 L 49.98441711293604,0.5 L 49.5,0 L 48.5,0 L 48.11477501737901,0.5 L 47.65056280670894,1.5 L 47.5,1.7097341785534934 L 47.06424452447537,2.5 L 46.5,3.004037743843736 L 45.76226840185043,3.5 L 45.5,3.6329282111630503 L 44.5,4.109130097135155 L 43.702941913158476,4.5 L 43.5,4.627194164708129 L 42.5,5.393352047945092 L 42.38564446314891,5.5 L 42.029683180693084,6.5 L 42.34820159974835,7.5 L 42.5,7.73176246010247 L 43.089204116553766,8.5 L 43.5,9.105265634313879 L 44.14659025181344,9.5 L 44.5,9.77259460693818 L 45.242353504032636,9.5 Z" />
  <path d="M 95.08117322543853,10.5 L 95.04142211967888,9.5 L 94.89792661225192,8.5 L 94.84256354964305,7.5 L 94.66612814988986,6.5 L 94.5,6.258867021807957 L 93.55677253134353,5.5 L 93.5,5.474729379148828 L 93.30504297127358,5.5 L 92.5,5.694488422959305 L 91.5,6.452627627332568 L 91.40587085604801,6.5 L 90.5,7.0554315753989405 L 89.5,7.075368083068581 L 88.5,7.230539016900782 L 88.07489635802536,7.5 L 87.5,7.918999711063087 L 86.90155777543741,8.5 L 86.5,9.016719098320168 L 86.04039002389294,9.5 L 86.1316127121716,10.5 L 86.5,10.743537652288667 L 87.5,11.269502724405342 L 88.5,11.311415425994625 L 89.5,10.952511770608279 L 90.5,10.633373650774603 L 91.5,10.687763651697724 L 92.5,10.99985178930155 L 93.5,11.260164135534332 L 94.5,11.035276277303158 L 95.08117322543853,10.5 Z" />
  <path d="M 67.85938488503956,11.5 L 68.5,11.266414214113484 L 69.29916539060198,10.5 L 69.5,10.288290634860997 L 70.15728620947694,9.5 L 70.42683298411986,8.5 L 69.5,7.689846516811388 L 68.5,7.7392536622879735 L 67.5,7.900626821015106 L 66.5,7.937656792846603 L 65.5,7.64132737071705 L 64.80711265800157,8.5 L 65.5,9.295130259781377 L 65.5804919803459,9.5 L 66.21273682015335,10.5 L 66.5,10.946218781870158 L 67.22822299795432,11.5 L 67.5,11.721776747428018 L 67.85938488503956,11.5 Z" />
  <path d="M 16.33351664120887,14.5 L 16.5,14.42918014322815 L 17.5,14.064599884586428 L 18.5,13.806670673327275 L 19.452426123943624,13.5 L 19.5,13.47443269593015 L 20.40417736360831,12.5 L 20.372138536194935,11.5 L 20.186874953149683,10.5 L 19.926822772735196,9.5 L 19.536583599363592,8.5 L 19.5,8.434736436135205 L 18.769009653545538,7.5 L 18.5,7.26353633906942 L 17.5,6.703366301982265 L 16.916962662844544,6.5 L 16.5,6.3808135975499125 L 15.5,6.235999493330263 L 14.5,6.243903766162721 L 13.692691572874033,6.5 L 13.5,6.724013492623413 L 13.247669966566415,7.5 L 13.319107486241784,8.5 L 13.313860794428034,9.5 L 13.17037856040097,10.5 L 13.05771117283552,11.5 L 13.053168548505758,12.5 L 13.16757451610479,13.5 L 13.476175301007322,14.5 L 13.5,14.55621712547728 L 14.5,15.205552963340821 L 15.5,14.96306637929886 L 16.33351664120887,14.5 Z" />
  <path d="M 32.121574843931256,14.5 L 32.5,14.414688976006907 L 33.5,14.204060913617734 L 34.5,13.973490662734024 L 35.459582693998016,13.5 L 35.5,13.466336869078392 L 36.18548385213282,12.5 L 36.05085706380068,11.5 L 35.5,10.71597239101756 L 35.3355874035636,10.5 L 34.5,9.820176812637925 L 33.890084815468164,9.5 L 33.5,9.268904737780428 L 32.5,8.754812827970824 L 32.04959116850651,8.5 L 31.5,8.254868109384129 L 30.5,8.062770060469596 L 29.5,8.135173342573934 L 28.5,8.447537229241536 L 28.39075026257242,8.5 L 27.5,8.999020328803406 L 26.578963697435867,9.5 L 26.5,9.581847509635496 L 25.5,10.470569221448763 L 25.46537376938652,10.5 L 25.306117067870606,11.5 L 25.5,11.74107626234973 L 26.5,12.255932306174422 L 27.055405349875983,12.5 L 27.5,12.662417571183584 L 28.5,13.138184724904269 L 29.144900038681154,13.5 L 29.5,13.839902546416647 L 30.444168573294647,14.5 L 30.5,14.564986710589816 L 31.5,14.734686665715206 L 32.121574843931256,14.5 Z" />
  <path d="M 100,17.5 L 100,16.5 L 100,15.5 L 100,14.5 L 99.5,14.419493625665547 L 99.40206260869799,14.5 L 98.71539448537695,15.5 L 98.81553989163916,16.5 L 99.49993036391639,17.5 L 99.5,17.500072166682912 L 100,17.5 Z" />
  <path d="M 34.66290867612545,25.5 L 35.5,24.969248989866056 L 35.93650960133692,24.5 L 36.5,24.034870711917165 L 37.39430257823467,23.5 L 37.5,23.454981427821856 L 38.5,22.812460888526086 L 38.78950913265802,22.5 L 39.090592890093305,21.5 L 38.89753010125675,20.5 L 38.5,19.547164565958056 L 38.4759844885352,19.5 L 37.86879866699878,18.5 L 37.5,17.84089157242846 L 37.11205711909086,17.5 L 36.5,16.905408962319697 L 35.5,16.834729546252806 L 34.5,17.403237307169718 L 34.39375410009802,17.5 L 33.609717185483596,18.5 L 33.5,18.71063802634428 L 32.85812235606382,19.5 L 32.5,19.75620140572029 L 31.5,20.051673828055467 L 30.5,20.091707266607862 L 29.5,19.922452404388824 L 28.689870967740397,19.5 L 28.5,19.199708703687907 L 28.216898596932293,18.5 L 27.744699218515116,17.5 L 27.5,17.30372139557041 L 26.75035132775659,16.5 L 26.5,16.289116040236646 L 25.721826912162165,15.5 L 25.5,15.23404624748796 L 24.704243635730723,14.5 L 24.5,14.20392121722165 L 23.5,13.852504944672638 L 22.5,14.478364955881416 L 22.488017237176244,14.5 L 22.428620563293,15.5 L 22.5,15.814238268357599 L 22.656386164130893,16.5 L 23.0361221956079,17.5 L 23.425119174048966,18.5 L 23.5,18.79298490721326 L 23.705285102501854,19.5 L 23.780324856044178,20.5 L 23.841969183206025,21.5 L 24.078730966550737,22.5 L 24.5,23.49694466844962 L 24.50158530976671,23.5 L 25.12185560282891,24.5 L 25.5,25.099692226782736 L 26.15056977855219,25.5 L 26.5,25.67397044882978 L 27.5,25.665565901013455 L 28.5,25.591301812124062 L 29.5,25.66438485665629 L 30.5,25.802346280558552 L 31.5,25.828001766347555 L 32.5,25.781720826827964 L 33.5,25.722118846358324 L 34.5,25.571189644801713 L 34.66290867612545,25.5 Z" />
  <path d="M 72.96332353290852,25.5 L 73.5,24.66737641301399 L 73.54909397323075,24.5 L 73.52875105021734,23.5 L 73.5,23.408609627063598 L 72.9666021687764,22.5 L 72.5,22.136580915548667 L 71.5,22.11574555208506 L 70.5,22.420872590493595 L 69.5,22.4813073727238 L 68.5,22.001003520720335 L 67.70822979396571,21.5 L 67.5,21.15987099815035 L 66.8245564509461,20.5 L 67.5,19.846304565623875 L 67.84105904839731,19.5 L 68.5,19.1999970774428 L 69.5,18.595010661082593 L 69.60048747769895,18.5 L 70.23686498628406,17.5 L 70.14496816042757,16.5 L 69.5,15.557380596762098 L 69.4525412543797,15.5 L 68.5,14.626509737510021 L 68.24181279766155,14.5 L 67.5,13.961301016986068 L 66.5,13.904880863458136 L 65.5,13.820390206521266 L 65.01661183977039,13.5 L 64.5,13.23409846357707 L 63.5,12.553908092667534 L 63.41788058528414,12.5 L 62.5,11.93903642440531 L 61.5,11.65179451626411 L 60.5,11.719101825233418 L 59.5,12.356992729117282 L 59.40071772883342,12.5 L 58.75714878072889,13.5 L 58.5,13.87111321346547 L 57.98404849381918,14.5 L 57.5,14.90997850477839 L 56.5,15.42896473010645 L 56.35625297893165,15.5 L 55.5,15.937867066821465 L 54.51275279768114,16.5 L 54.5,16.511050749158496 L 53.54382171131345,17.5 L 53.5,17.613870261530852 L 53.143630735873806,18.5 L 53.214681281783136,19.5 L 53.5,20.492771083868803 L 53.50207435945205,20.5 L 53.93590669474838,21.5 L 54.5,22.36373343599639 L 54.622760842749194,22.5 L 55.5,23.10321226873493 L 56.5,23.488706397779175 L 56.53472507573226,23.5 L 57.5,23.715145842657144 L 58.5,23.967423589962156 L 59.5,24.25405362757712 L 60.5,24.49137123538061 L 60.578043807105885,24.5 L 61.5,24.612631872129214 L 62.5,24.72821903131081 L 63.5,25.01705776325924 L 64.5,25.426902621192685 L 64.73342861458444,25.5 L 65.5,25.63732836729247 L 66.5,25.707999635005173 L 67.5,25.676453564164046 L 68.5,25.546785809744435 L 68.96964451258853,25.5 L 69.5,25.39848926434668 L 70.30563199620279,25.5 L 70.5,25.517245220077854 L 71.5,25.71995055022552 L 72.5,25.746981658453635 L 72.96332353290852,25.5 Z" />
  <path d="M 63.5,21.55592981043521 L 63.41591790896715,21.5 L 62.5,20.930546666634132 L 62.21292872688761,20.5 L 61.668407312451926,19.5 L 61.782152646248015,18.5 L 62.5,18.139028270805664 L 63.5,18.098068256499626 L 64.5,18.493390753691607 L 64.51016057351144,18.5 L 65.32883853730542,19.5 L 65.4617840502569,20.5 L 64.5,21.2323645237138 L 63.70632549382799,21.5 L 63.5,21.55592981043521 Z" />
  <path d="M 79.84545485132612,28.5 L 80.5,27.985241076841614 L 81.39757224103525,27.5 L 80.5,26.785053940039646 L 79.5,26.503976540850182 L 78.5,27.162239852466485 L 78.25604970219511,27.5 L 78.22032706589518,28.5 L 78.5,28.757499200912672 L 79.5,28.661798064953977 L 79.84545485132612,28.5 Z" />
  <path d="M 86.87326657589041,28.5 L 87.25211156975645,27.5 L 87.38155187726983,26.5 L 87.16510961112236,25.5 L 86.5,24.55964682016989 L 86.39088170354107,24.5 L 85.5,23.893842140049397 L 84.5,24.37457004026405 L 84.44834679392103,24.5 L 83.62179268001,25.5 L 83.5,25.640392271184425 L 82.64411023313686,26.5 L 82.5,27.271915106139936 L 82.03081477837125,27.5 L 82.5,27.534789348596206 L 83.5,28.33357106216 L 83.64252382609088,28.5 L 84.5,29.06625903772345 L 85.5,29.471491753655425 L 86.5,29.033940187232577 L 86.87326657589041,28.5 Z" />
  <path d="M 15.318984007928245,30.5 L 15.5,30.265389583065225 L 15.850914345477513,29.5 L 16.086200832403943,28.5 L 15.934135928299884,27.5 L 15.5,26.82751436032914 L 15.276851480631919,26.5 L 14.5,25.620252493694554 L 14.397046645643146,25.5 L 13.735381034676584,24.5 L 13.5,23.575596681331344 L 13.48065953381227,23.5 L 13.5,22.983749459879327 L 13.515316929372492,22.5 L 13.727259710349793,21.5 L 13.989087260498167,20.5 L 13.986984952899459,19.5 L 13.5,18.686283582157877 L 13.12304996188185,18.5 L 12.5,18.30713447887363 L 12.06843340995878,18.5 L 11.5,18.70145133697364 L 10.598339924344003,19.5 L 10.5,19.58455292272448 L 9.703251416509564,20.5 L 9.5,20.73086423947523 L 8.711152245958722,21.5 L 8.5,21.731010128824476 L 7.617319728719572,22.5 L 7.5,22.652320074625624 L 6.871448581640482,23.5 L 6.582405862949993,24.5 L 7.143578820079397,25.5 L 7.5,25.701956738211365 L 8.5,25.955295783346422 L 9.5,26.253811340371456 L 9.93042381058853,26.5 L 10.5,26.833223650992572 L 11.140646011683817,27.5 L 11.5,28.04219828848412 L 11.759040607665746,28.5 L 12.062049371740839,29.5 L 12.312904599471672,30.5 L 12.5,30.829125433977644 L 13.5,31.380557330363608 L 14.5,31.175732757198556 L 15.318984007928245,30.5 Z" />
  <path d="M 100,36.5 L 100,35.5 L 100,34.5 L 100,33.5 L 100,32.5 L 100,31.5 L 100,30.5 L 100,29.5 L 100,28.5 L 99.5,27.644388255506456 L 98.5,27.517989050006435 L 98.36487210953905,27.5 L 97.5,27.42352150449786 L 96.59781140562205,27.5 L 96.5,27.514219400239877 L 95.5,28.248098757384586 L 95.34549775508688,28.5 L 95.5,28.771090912290504 L 95.94197113649533,29.5 L 96.5,29.98772317363367 L 97.01565618016403,30.5 L 97.5,31.14028178728398 L 97.783279069358,31.5 L 98.21564129578009,32.5 L 98.37604264134943,33.5 L 98.10600654703669,34.5 L 97.5,35.479908319717964 L 97.48396146370786,35.5 L 97.5,35.5328130278317 L 98.23277334170568,36.5 L 98.5,36.58691870432006 L 99.5,36.879049221094135 L 100,36.5 Z" />
  <path d="M 24.742530393614867,39.5 L 25.5,38.801519493838455 L 25.719955714804563,38.5 L 26.5,37.90388287012441 L 27.215089860746367,37.5 L 27.5,37.32978703591271 L 28.5,36.66603296555809 L 28.659436420755128,36.5 L 28.675589082318783,35.5 L 28.5,35.11149375729162 L 28.12147789460237,34.5 L 27.5,33.99863237291891 L 26.5,33.611689881424034 L 26.145863945613748,33.5 L 25.5,33.32659072898075 L 24.5,33.05323355291571 L 23.5,32.857686100169865 L 22.5,32.832727713707605 L 21.5,33.05188087697124 L 20.70437178884986,33.5 L 20.5,33.7914724758678 L 20.184301037078967,34.5 L 20.033618219415967,35.5 L 20.182317692170994,36.5 L 20.5,36.77864006767743 L 21.5,37.245100571819464 L 21.886439917247127,37.5 L 22.5,37.909960711294936 L 23.081194741728655,38.5 L 23.5,39.12041665349929 L 24.110830049360136,39.5 L 24.5,39.696651949352784 L 24.742530393614867,39.5 Z" />
  <path d="M 94.68710125651454,41.5 L 94.70621555016415,40.5 L 94.5,39.58118216632812 L 94.297492175416,39.5 L 93.5,39.246021837079795 L 93.39708366448077,39.5 L 93.17016899250103,40.5 L 93.43537903470468,41.5 L 93.5,41.61960074383628 L 94.5,41.981676694455174 L 94.68710125651454,41.5 Z" />
  <path d="M 38.53742315932432,42.5 L 39.257586390694065,41.5 L 38.58732952456944,40.5 L 38.5,40.33575091611045 L 38.21094514076691,39.5 L 38.16839275961782,38.5 L 38.31986007381944,37.5 L 38.231856010703815,36.5 L 37.5,35.67069275135719 L 36.5,35.93651408593284 L 35.839519442345285,36.5 L 35.5,36.80126057684566 L 34.670491990706886,37.5 L 34.5,37.62677834945668 L 33.5,38.19092839034233 L 32.74438594877771,38.5 L 32.5,38.81925805505466 L 32.17577999675119,39.5 L 32.5,40.11886895820208 L 32.632401705105465,40.5 L 33.28450733109636,41.5 L 33.5,41.78773575885291 L 34.07518427559868,42.5 L 34.5,42.9489197299657 L 35.5,43.438883596190045 L 36.5,43.352930933102016 L 37.5,42.94698001181403 L 38.5,42.50827736704924 L 38.53742315932432,42.5 Z" />
  <path d="M 78.83594547630815,46.5 L 79.44882429460121,45.5 L 79.5,45.28442250215473 L 79.62070893193425,44.5 L 79.6458070324864,43.5 L 79.5,42.782897412307925 L 79.42861234788575,42.5 L 78.93466021428728,41.5 L 78.5,40.751346515071596 L 78.37365778019505,40.5 L 77.89188460943147,39.5 L 77.5,38.666755254934884 L 77.4079754783398,38.5 L 76.7577902879094,37.5 L 76.5,37.12621021599908 L 75.89652129094955,36.5 L 75.5,35.84179698467134 L 75.21729467738515,35.5 L 74.61826655906755,34.5 L 74.5,34.35000349377109 L 73.5,34.21131973379971 L 73.01912428730641,34.5 L 72.5,34.97846684825073 L 72.13070131678197,35.5 L 71.94695451431613,36.5 L 72.19700278263728,37.5 L 72.47387373578205,38.5 L 72.4556648417633,39.5 L 72.27743253743134,40.5 L 72.03145835093814,41.5 L 72.03983527770467,42.5 L 72.5,43.0018576326354 L 72.86560909282043,43.5 L 73.5,43.81433144550148 L 74.5,44.45375308394667 L 74.55610093352264,44.5 L 75.5,45.21966333536758 L 75.79231286129304,45.5 L 76.5,46.17635096233861 L 76.97363255124135,46.5 L 77.5,46.79794470649009 L 78.5,46.78457994761893 L 78.83594547630815,46.5 Z" />
  <path d="M 5.115162157737687,48.5 L 5.5,47.72243728187026 L 5.544157872501786,47.5 L 5.696365539567109,46.5 L 5.573028425111397,45.5 L 5.5,45.38631606391907 L 4.5,44.69393398346266 L 3.5,44.55930623399058 L 2.5,44.54585787094639 L 2.206267778349973,44.5 L 1.5,44.40179345480967 L 0.5,43.821328031268294 L 0,44.5 L 0,45.5 L 0,46.5 L 0,47.5 L 0,48.5 L 0.5,49.07663658939052 L 1.5,49.082912540975464 L 2.5,49.17527973338711 L 3.5,49.26786591914127 L 4.5,49.21641508880523 L 5.115162157737687,48.5 Z" />
  <path d="M 52.91165406716687,49.5 L 53.5,49.19025406025094 L 54.5,48.747653431846224 L 55.145370060512995,48.5 L 55.5,48.326355100880264 L 56.5,47.793724358921445 L 56.99223818594273,47.5 L 57.5,46.95533113692549 L 58.13188100557505,46.5 L 58.326352797462064,45.5 L 57.5,45.21060414615695 L 56.5,44.84408391489 L 55.546175876207606,44.5 L 55.5,44.487040123833005 L 54.5,44.07303147412397 L 53.58599288127907,43.5 L 53.5,43.41491824292217 L 52.83597755201823,42.5 L 52.718855765328456,41.5 L 52.9724693410399,40.5 L 53.35630009271491,39.5 L 53.5,39.114647034165394 L 53.72109866767054,38.5 L 54.111529920825724,37.5 L 54.5,36.73758408266706 L 54.63319450355353,36.5 L 54.934335522743424,35.5 L 54.5,34.97188974473555 L 53.5,34.772705358414306 L 52.5,34.5192841916576 L 52.47319448583536,34.5 L 51.5,33.78336342667381 L 51.2839183088775,33.5 L 50.73019102644607,32.5 L 50.5,32.02295248828268 L 50.23886981018124,31.5 L 49.68002454225196,30.5 L 49.5,30.219055048811015 L 48.79255941541452,29.5 L 48.5,29.17764775493341 L 47.5,28.590408140372606 L 46.764707931646726,28.5 L 46.5,28.45710926895238 L 46.27480638316974,28.5 L 45.5,28.585396341842984 L 44.5,28.80846893996847 L 43.5,29.225700108903624 L 43.145049490978565,29.5 L 42.556529528805214,30.5 L 42.60454921976607,31.5 L 42.93718024635889,32.5 L 43.39766687991144,33.5 L 43.5,33.72669846284725 L 43.899257500236104,34.5 L 44.282857679404096,35.5 L 44.5,36.24586047763964 L 44.60327500845152,36.5 L 45.09155037715279,37.5 L 45.5,37.96907517296433 L 46.13356850978325,38.5 L 46.5,38.78438689497158 L 47.238729238912576,39.5 L 47.5,39.94900232008369 L 47.76725177068514,40.5 L 47.5,41.09044068131579 L 46.97293441926829,41.5 L 46.5,41.62920661132267 L 45.5,41.73427144054118 L 44.5,41.94560609506195 L 43.80642827717909,42.5 L 43.78420928847186,43.5 L 44.25245029957413,44.5 L 44.5,44.76636729020572 L 45.4208229280084,45.5 L 45.5,45.5352418051576 L 46.5,45.70118769858474 L 47.5,45.72135920590795 L 48.5,45.78815246453326 L 49.5,46.10217907720316 L 50.029172652342794,46.5 L 50.5,47.10350640907392 L 50.740292733422024,47.5 L 50.969738476151605,48.5 L 51.03754955358112,49.5 L 51.5,50.15859617697851 L 52.5,49.741513631263686 L 52.91165406716687,49.5 Z" />
  <path d="M 11.432656920388476,53.5 L 11.5,53.415367578507734 L 11.89819657034501,52.5 L 12.210564747664028,51.5 L 12.22525613940189,50.5 L 11.5,50.05145276214376 L 10.5,49.866121484078356 L 9.5,49.83694860562729 L 8.5,49.86543689130893 L 7.5,49.91614971308245 L 6.5,50.01096644234227 L 5.540611978261603,50.5 L 5.5,51.12448504816976 L 5.476360462352969,51.5 L 5.5,51.526569099555346 L 6.246977300911454,52.5 L 6.5,52.63188702445647 L 7.5,53.21233757994319 L 7.998445321687006,53.5 L 8.5,53.76380582384891 L 9.5,54.193884155030844 L 10.5,54.29178210765441 L 11.432656920388476,53.5 Z" />
  <path d="M 10.226719551018492,59.5 L 10.156997592219545,58.5 L 9.5,58.0525092428434 L 8.863325242477655,57.5 L 8.5,57.300384288593264 L 7.5,56.62662109796858 L 7.279209676019922,56.5 L 6.5,56.029351172581045 L 5.5,55.738219429097434 L 4.5,55.80384442368467 L 3.7926169155248806,56.5 L 3.5,56.80075390488719 L 3.120223992122904,57.5 L 2.5,58.40914308653193 L 2.4274975583729193,58.5 L 1.5,59.270776950076154 L 1.0751503903611348,59.5 L 1.5,60 L 2.5,60 L 3.5,60 L 4.5,60 L 5.5,60 L 6.5,60 L 7.5,60 L 8.5,60 L 9.5,60 L 10.226719551018492,59.5 Z" />
  <path d="M 33.83600824719118,59.5 L 34.5,58.615672248762415 L 34.63985495852867,58.5 L 34.58305054613882,57.5 L 34.5,57.33814310088113 L 34.152712711469036,56.5 L 33.901661062647925,55.5 L 33.92061185244049,54.5 L 33.9396506432075,53.5 L 33.51684594811592,52.5 L 33.5,52.48677140915278 L 32.5,52.07248482507737 L 31.5,51.930899255430184 L 30.5,51.921710516020816 L 29.5,52.028852346455814 L 28.5,52.19057216884501 L 27.5,52.217267470894406 L 26.5,52.130555060381695 L 25.5,52.38750059794403 L 25.41201961466095,52.5 L 25.129264632568507,53.5 L 25.353666619587624,54.5 L 25.5,54.687843802601925 L 26.5,54.85182951010755 L 27.5,54.83157812897221 L 28.5,55.27387160458717 L 28.717612046830034,55.5 L 29.093169104785517,56.5 L 28.67919198920744,57.5 L 28.5,57.70369568718684 L 27.786600927814902,58.5 L 27.5,58.77255756115131 L 26.5,59.46831707667345 L 26.40014523806206,59.5 L 26.5,60 L 27.5,60 L 28.5,60 L 29.5,60 L 30.5,60 L 31.5,60 L 32.5,60 L 33.5,60 L 33.83600824719118,59.5 Z" />
  <path d="M 64.43300786385016,59.5 L 63.5,58.92120071418896 L 62.5,58.80737766310131 L 61.5,59.24050666118122 L 61.25330593686985,59.5 L 61.5,60 L 62.5,60 L 63.5,60 L 64.43300786385016,59.5 Z" />
  <path d="M 73.06904225774048,59.5 L 72.68914728647617,58.5 L 72.5,58.272250636537166 L 71.768807532,57.5 L 71.5,57.170355469561834 L 71.15708646362542,56.5 L 70.94668905221984,55.5 L 70.7938336309223,54.5 L 70.5400378352932,53.5 L 70.5,53.422439872597124 L 69.89626448518658,52.5 L 69.5,52.18317296754813 L 68.5,51.63207932473152 L 68.16542487790225,51.5 L 67.5,50.78309838673958 L 67.26531275191897,50.5 L 67.5,50.15376344356123 L 67.76087579354451,49.5 L 68.43672860767751,48.5 L 68.5,48.403530958207035 L 69.08407276516321,47.5 L 69.5,46.61185030599705 L 69.57314949274725,46.5 L 69.90202588747239,45.5 L 69.83904495971112,44.5 L 69.5,44.02044789854272 L 68.5,43.55015710098308 L 68.33443471952528,43.5 L 67.5,43.24196947553093 L 66.5,42.92368932387459 L 65.5,42.71799397938032 L 64.5,42.715634196327365 L 63.5,42.969636695924194 L 62.5,43.40753960459328 L 62.314377216886136,43.5 L 61.5,44.032933781704585 L 60.649041048209966,44.5 L 60.5,44.71575241953697 L 59.53992659596418,45.5 L 60.28269328012927,46.5 L 60.5,46.60092441416355 L 61.5,47.34376402055336 L 61.70122913633323,47.5 L 62.5,48.310749575109924 L 62.65085576949109,48.5 L 63.098757987806884,49.5 L 63.5,50.37837701671551 L 63.585346572235096,50.5 L 63.98922525053082,51.5 L 64.09238777330538,52.5 L 64.3027910438566,53.5 L 64.5,53.980098880209525 L 64.62578575093374,54.5 L 65.01271318636873,55.5 L 65.5,56.30519903659757 L 65.62455187559767,56.5 L 66.35288957159055,57.5 L 66.5,57.72109104306583 L 67.21950155449261,58.5 L 67.5,58.864734378323 L 68.07300597322053,59.5 L 68.5,60 L 69.5,60 L 70.5,60 L 71.5,60 L 72.5,60 L 73.06904225774048,59.5 Z" />
  <path d="M 100,59.5 L 100,58.5 L 99.5,57.56713409114509 L 99.46226523412633,57.5 L 98.76691996804755,56.5 L 98.5,56.16683770513788 L 97.54913548579123,55.5 L 97.5,55.46873202407277 L 96.5,55.15251014418507 L 95.5,55.04316874264285 L 94.5,55.09380543653154 L 93.5,55.39824305081821 L 93.08651984376384,55.5 L 92.5,55.62244942779314 L 92.15065249338348,55.5 L 91.5,55.066961467319274 L 90.79046826799396,54.5 L 91.5,53.58844212775776 L 91.58596834085067,53.5 L 92.5,53.18679007429324 L 93.5,52.61259183533024 L 93.66683658334212,52.5 L 94.5,52.17886997788914 L 95.5,52.0122392469441 L 96.5,51.86595058581791 L 97.47149311314514,51.5 L 97.5,51.482690680156075 L 98.15316603163419,50.5 L 97.87499646533864,49.5 L 97.5,49.07425901078511 L 96.91272815949682,48.5 L 96.5,48.18751294186699 L 95.50369010622983,47.5 L 95.5,47.49680866809403 L 94.5,46.93392994868415 L 93.5,47.10765702436706 L 93.22785952319485,47.5 L 92.64523382281786,48.5 L 92.5,48.72217703692115 L 92.01604305708972,49.5 L 91.5,50.08230195612107 L 91.10083187617674,50.5 L 90.5,51.28487244619319 L 90.35467544924236,51.5 L 90.20984585646751,52.5 L 90.40337271195173,53.5 L 89.5,54.464819139828414 L 89.47939672164544,54.5 L 88.5,55.39579415068422 L 88.43168523740124,55.5 L 87.99440901043444,56.5 L 87.93646187356839,57.5 L 87.98159096327598,58.5 L 87.78974364842892,59.5 L 88.5,60 L 89.5,60 L 90.5,60 L 91.5,60 L 92.5,60 L 93.5,60 L 94.5,60 L 95.5,60 L 96.5,60 L 97.5,60 L 98.5,60 L 99.5,60 L 100,59.5 Z" />
  <path d="M 50.55213803670875,37.5 L 50.5,37.193057092598856 L 50.25434681919896,36.5 L 49.5,35.765100843862946 L 48.82526795539718,36.5 L 49.41946848439723,37.5 L 49.5,37.57576408468263 L 50.5,37.58193795103082 L 50.55213803670875,37.5 Z" />
</svg>